<svg width="23" height="25" viewBox="0 0 23 25" fill="none" xmlns="http://www.w3.org/2000/svg">
<path d="M10.8281 24.3438C10.2969 24.3438 9.82812 24.151 9.42188 23.7656L8.25 22.5938C7.85417 22.1979 7.65625 21.724 7.65625 21.1719C7.65625 20.6094 7.85417 20.1406 8.25 19.7656L12.8281 15.1719H1.82812C1.28646 15.1719 0.846354 14.9766 0.507812 14.5859C0.169271 14.1953 0 13.724 0 13.1719V11.1719C0 10.6198 0.169271 10.1484 0.507812 9.75781C0.846354 9.36719 1.28646 9.17188 1.82812 9.17188H12.8281L8.25 4.57812C7.85417 4.20312 7.65625 3.73438 7.65625 3.17188C7.65625 2.60938 7.85417 2.14062 8.25 1.76562L9.42188 0.59375C9.81771 0.197917 10.2865 0 10.8281 0C11.3802 0 11.8542 0.197917 12.25 0.59375L22.4219 10.7656C22.8073 11.1302 23 11.599 23 12.1719C23 12.7344 22.8073 13.2083 22.4219 13.5938L12.25 23.7656C11.8438 24.151 11.3698 24.3438 10.8281 24.3438Z" fill="#2727C4"/>
</svg>
